<svg xmlns="http://www.w3.org/2000/svg" viewBox="0 0 32 32" id="gift">
  <path fill="#ffcc5c" d="M24.75 11.554h-19a1 1 0 0 0-1 1v3a1 1 0 0 0 1 1h19a1 1 0 0 0 1-1v-3a1 1 0 0 0-1-1z"></path>
  <path fill="#f7b546" d="M24.75 11.554h-2a1 1 0 0 1 1 1v3a1 1 0 0 1-1 1h2a1 1 0 0 0 1-1v-3a1 1 0 0 0-1-1z"></path>
  <path fill="#ffcc5c" d="M16.25 16.554h7.5v11a1 1 0 0 1-1 1h-15a1 1 0 0 1-1-1v-11h7.5"></path>
  <path fill="#f7b546" d="M21.75 16.554h-15v2h11a4 4 0 0 1 4 4v6h1a1 1 0 0 0 1-1v-11h-2z"></path>
  <path fill="#f04c4d" d="M12.75 6.554a2.5 2.5 0 1 0 0 5h2.5v-2.5a2.5 2.5 0 0 0-2.5-2.5zm1.5 4h-1.5a1.5 1.5 0 1 1 1.5-1.5v1.5zm3.5-4a2.5 2.5 0 0 0-2.5 2.5v2.5h2.5a2.5 2.5 0 1 0 0-5zm0 4h-1.5v-1.5a1.5 1.5 0 1 1 1.5 1.5z"></path>
  <path fill="#e13340" d="M17.75 10.554h.5a1.5 1.5 0 0 0 0-3c-.086 0-.168.011-.25.025a1.497 1.497 0 0 1-.25 2.975zm-5-3h-.5a1.5 1.5 0 0 0 0 3c.086 0 .168-.011.25-.025a1.497 1.497 0 0 1 .25-2.975z"></path>
  <path fill="#f04c4d" d="M14.25 11.554h2v17h-2z"></path>
  <path fill="#ffcc5c" d="m22.65 5.454 1.6-.4-1.6-.4-.4-1.6-.4 1.6-1.6.4 1.6.4.4 1.6zm1.8 2.8.8-.2-.8-.2-.2-.8-.2.8-.8.2.8.2.2.8zm1-4 .8-.2-.8-.2-.2-.8-.2.8-.8.2.8.2.2.8z"></path>
</svg>
